<?xml version="1.0" encoding="UTF-8" standalone="no"?>
<svg
   xmlns:dc="http://purl.org/dc/elements/1.1/"
   xmlns:cc="http://creativecommons.org/ns#"
   xmlns:rdf="http://www.w3.org/1999/02/22-rdf-syntax-ns#"
   xmlns:svg="http://www.w3.org/2000/svg"
   xmlns="http://www.w3.org/2000/svg"
   xmlns:sodipodi="http://sodipodi.sourceforge.net/DTD/sodipodi-0.dtd"
   xmlns:inkscape="http://www.inkscape.org/namespaces/inkscape"
   sodipodi:docname="mineral.svg"
   inkscape:version="1.0 (4035a4f, 2020-05-01)"
   id="svg8"
   version="1.1"
   viewBox="0 0 26.458332 26.458334"
   height="100"
   width="100">
  <defs
     id="defs2" />
  <sodipodi:namedview
     units="px"
     inkscape:window-maximized="0"
     inkscape:window-y="23"
     inkscape:window-x="1680"
     inkscape:window-height="1035"
     inkscape:window-width="1920"
     showgrid="false"
     inkscape:document-rotation="0"
     inkscape:current-layer="layer1"
     inkscape:document-units="mm"
     inkscape:cy="63.024779"
     inkscape:cx="184.9081"
     inkscape:zoom="0.7"
     inkscape:pageshadow="2"
     inkscape:pageopacity="0.0"
     borderopacity="1.0"
     bordercolor="#666666"
     pagecolor="#ffffff"
     id="base" />
  <metadata
     id="metadata5">
    <rdf:RDF>
      <cc:Work
         rdf:about="">
        <dc:format>image/svg+xml</dc:format>
        <dc:type
           rdf:resource="http://purl.org/dc/dcmitype/StillImage" />
        <dc:title></dc:title>
      </cc:Work>
    </rdf:RDF>
  </metadata>
  <g
     id="layer1"
     inkscape:groupmode="layer"
     inkscape:label="Layer 1">
    <path
       d="m 12.987453,0.0251277 a 5.1747129,10.923331 0 0 0 -4.9232411,7.64161 3.8006647,4.0873485 0 0 0 -0.372246,-0.01956 3.8006647,4.0873485 0 0 0 -3.800679,4.0873173 3.8006647,4.0873485 0 0 0 0.164846,1.190173 7.142629,5.6201042 0 0 0 -4.031014,5.058693 7.142629,5.6201042 0 0 0 7.142655,5.620195 7.142629,5.6201042 0 0 0 1.351197,-0.101553 2.4245623,1.5327557 0 0 0 1.7222791,0.929033 4.7180669,5.6201042 0 0 0 3.610478,2.002178 4.7180669,5.6201042 0 0 0 4.095608,-2.830194 1.6382177,2.0829756 0 0 0 1.55824,-1.586611 7.4375081,6.4061326 0 0 0 6.927639,-6.391042 7.4375081,6.4061326 0 0 0 -6.281875,-6.3283893 3.145378,3.9301425 0 0 0 -2.369745,-2.523812 5.1747129,10.923331 0 0 0 -4.781779,-6.748039 5.1747129,10.923331 0 0 0 -0.01237,0 z"
       style="fill:#000000;fill-opacity:0;stroke:#000000;stroke-width:0.0502378"
       id="path32" />
  </g>
</svg>
