<?xml version="1.0" encoding="UTF-8" standalone="no"?>
<svg
   xmlns:dc="http://purl.org/dc/elements/1.1/"
   xmlns:cc="http://creativecommons.org/ns#"
   xmlns:rdf="http://www.w3.org/1999/02/22-rdf-syntax-ns#"
   xmlns:svg="http://www.w3.org/2000/svg"
   xmlns="http://www.w3.org/2000/svg"
   xmlns:sodipodi="http://sodipodi.sourceforge.net/DTD/sodipodi-0.dtd"
   xmlns:inkscape="http://www.inkscape.org/namespaces/inkscape"
   width="128"
   height="128"
   viewBox="0 0 128 128"
   version="1.1"
   id="svg8"
   inkscape:version="1.0.2 (e86c870879, 2021-01-15, custom)"
   sodipodi:docname="ore.svg">
  <defs
     id="defs2" />
  <sodipodi:namedview
     id="base"
     pagecolor="#ffffff"
     bordercolor="#666666"
     borderopacity="1.0"
     inkscape:pageopacity="0.0"
     inkscape:pageshadow="2"
     inkscape:zoom="5.5525512"
     inkscape:cx="84.53706"
     inkscape:cy="55.170806"
     inkscape:document-units="px"
     inkscape:current-layer="layer1"
     inkscape:document-rotation="0"
     showgrid="false"
     units="px"
     inkscape:pagecheckerboard="true"
     inkscape:window-width="1817"
     inkscape:window-height="1051"
     inkscape:window-x="94"
     inkscape:window-y="-9"
     inkscape:window-maximized="1" />
  <metadata
     id="metadata5">
    <rdf:RDF>
      <cc:Work
         rdf:about="">
        <dc:format>image/svg+xml</dc:format>
        <dc:type
           rdf:resource="http://purl.org/dc/dcmitype/StillImage" />
        <dc:title></dc:title>
      </cc:Work>
    </rdf:RDF>
  </metadata>
  <g
     inkscape:label="Layer 1"
     inkscape:groupmode="layer"
     id="layer1">
    <path
       id="path933"
       style="fill:#000000;fill-opacity:1;stroke:#a90000;stroke-width:1px;stroke-linecap:butt;stroke-linejoin:round;stroke-opacity:1"
       d="m 35.311366,51.66971 38.749999,6.42857 -32.499999,26.96429 -6.25,-33.39286 m 6.249999,33.392855 c 32.5,-26.964285 32.5,-26.964285 32.5,-26.964285 l 25.892861,-12.5 M 41.561365,85.062565 75.132793,88.633991 92.45422,72.383994 99.954226,45.59828 m -25.892861,12.5 1.071428,30.535711 M 26.739936,28.09828 35.311365,51.669708 M 26.739936,28.09828 14.061365,54.526851 l 27.5,30.535714 v 0 l -6.25,-33.392857 v 0 M 26.739936,28.09828 c 8.571429,23.571428 8.571429,23.571428 8.571429,23.571428 l 38.75,6.428572 25.892871,-12.5 L 84.418508,9.7054213 51.204222,8.0982793 Z m -14.401704,60.155699 5.465503,-8.673686 -7.678572,3.392856 z m 0,0 -7.3916409,-1.53083 -0.892857,-8.749999 6.0714289,4.999999 z M 4.0537341,77.97315 c 6.0714289,5 6.0714289,5 6.0714289,5 l 7.678572,-3.392857 -5.178572,-13.035714 z m 74.8549999,29.89315 -0.633312,8.56676 -3.571428,-3.21429 z m -4.20474,5.35247 3.571428,3.21429 -12.5,0.53571 -1.25,-3.57143 z m -12.402403,-5.53104 2.142857,5.17857 10.178572,-0.17857 4.285714,-4.82143 -4.107143,-5.35714 -9.107143,0.89286 v 0 z m -14.667272,1.75215 -1.071429,9.28571 -13.035714,4.10715 c -0.892857,-8.03572 -0.892857,-8.03572 -0.892857,-8.03572 l 15,-5.35714 m -29.464286,-2.67857 c 1.964286,10.89285 1.964286,10.89285 1.964286,10.89285 l 13.392857,5.17858 -0.892857,-8.03572 z m -1.25,-10.000011 1.25,10.000011 14.464286,8.03571 15,-5.35714 -2.5,-8.39287 -19.642857,-9.999996 z m 74.488701,2.095515 16.428576,2.321426 m -16.428576,-2.321426 6.25,13.035726 10.178576,-10.7143 m 15,-15.357136 -25.178576,26.071436 v 0 m 0,0 22.321436,-8.57143 2.85714,-17.500006 m -31.428576,13.03571 12.500006,-28.214281 18.92857,15.178571 -15,15.357136 z" />
  </g>
</svg>
